<svg width="37" height="12" viewBox="0 0 37 12" fill="none" xmlns="http://www.w3.org/2000/svg">
<path d="M0.75 4.77295C0.335786 4.77295 0 5.10874 0 5.52295C0 5.93716 0.335786 6.27295 0.75 6.27295V4.77295ZM36.2803 6.05328C36.5732 5.76039 36.5732 5.28551 36.2803 4.99262L31.5074 0.219648C31.2145 -0.073245 30.7396 -0.073245 30.4467 0.219648C30.1538 0.512542 30.1538 0.987415 30.4467 1.28031L34.6893 5.52295L30.4467 9.76559C30.1538 10.0585 30.1538 10.5334 30.4467 10.8263C30.7396 11.1191 31.2145 11.1191 31.5074 10.8263L36.2803 6.05328ZM0.75 6.27295H35.75V4.77295H0.75V6.27295Z" fill="url(#paint0_linear_24_90)"/>
<defs>
<linearGradient id="paint0_linear_24_90" x1="35.75" y1="6.17702" x2="28.9575" y2="17.7987" gradientUnits="userSpaceOnUse">
<stop stop-color="#237249"/>
<stop offset="1" stop-color="#35C66B"/>
</linearGradient>
</defs>
</svg>
