<svg width="220" height="220" viewBox="0 0 220 220" fill="none" xmlns="http://www.w3.org/2000/svg">
<g filter="url(#filter0_d_8_11)">
<path d="M158.773 28.2443C165.707 26.2679 172.444 31.9207 171.701 39.0922C171.127 44.6426 175.124 49.6226 180.667 50.2631C187.829 51.0906 191.89 58.8911 188.46 65.2326C185.805 70.1407 187.592 76.2712 192.468 78.9841C198.768 82.4895 199.535 91.2502 193.939 95.7963C189.608 99.3148 188.913 105.662 192.379 110.035C196.859 115.684 194.214 124.072 187.305 126.13C181.957 127.723 178.885 133.322 180.415 138.688C182.391 145.622 176.739 152.359 169.567 151.616C164.017 151.042 159.037 155.039 158.396 160.582C157.569 167.744 149.768 171.805 143.427 168.375C138.519 165.72 132.388 167.507 129.675 172.383C126.17 178.683 117.409 179.449 112.863 173.854C109.344 169.523 102.997 168.827 98.6243 172.294C92.9748 176.773 84.5877 174.129 82.529 167.219C80.9358 161.872 75.3374 158.8 69.971 160.33C63.0374 162.306 56.3007 156.653 57.043 149.482C57.6175 143.931 53.6206 138.951 48.0774 138.311C40.9152 137.484 36.8545 129.683 40.2847 123.341C42.9396 118.433 41.1527 112.303 36.2765 109.59C29.9762 106.085 29.2098 97.3239 34.8057 92.7778C39.1367 89.2593 39.8318 82.9117 36.3651 78.5392C31.8858 72.8896 34.5302 64.5025 41.4399 62.4439C46.7877 60.8506 49.8591 55.2522 48.3294 49.8858C46.3531 42.9522 52.0059 36.2155 59.1774 36.9578C64.7278 37.5323 69.7078 33.5354 70.3483 27.9922C71.1757 20.8301 78.9763 16.7694 85.3178 20.1996C90.2259 22.8544 96.3563 21.0675 99.0693 16.1914C102.575 9.89106 111.335 9.1246 115.881 14.7205C119.4 19.0515 125.748 19.7467 130.12 16.2799C135.77 11.8006 144.157 14.445 146.215 21.3547C147.809 26.7025 153.407 29.7739 158.773 28.2443Z" fill="url(#paint0_linear_8_11)"/>
</g>
<defs>
<filter id="filter0_d_8_11" x="2.95639e-05" y="-7.62939e-06" width="219.615" height="219.615" filterUnits="userSpaceOnUse" color-interpolation-filters="sRGB">
<feFlood flood-opacity="0" result="BackgroundImageFix"/>
<feColorMatrix in="SourceAlpha" type="matrix" values="0 0 0 0 0 0 0 0 0 0 0 0 0 0 0 0 0 0 127 0" result="hardAlpha"/>
<feOffset dx="-4.5648" dy="15.5203"/>
<feGaussianBlur stdDeviation="13.2379"/>
<feComposite in2="hardAlpha" operator="out"/>
<feColorMatrix type="matrix" values="0 0 0 0 0.0775104 0 0 0 0 0.241623 0 0 0 0 0.157958 0 0 0 0.46 0"/>
<feBlend mode="normal" in2="BackgroundImageFix" result="effect1_dropShadow_8_11"/>
<feBlend mode="normal" in="SourceGraphic" in2="effect1_dropShadow_8_11" result="shape"/>
</filter>
<linearGradient id="paint0_linear_8_11" x1="166.399" y1="174.788" x2="55.311" y2="90.464" gradientUnits="userSpaceOnUse">
<stop stop-color="#237249"/>
<stop offset="1" stop-color="#35C66B"/>
</linearGradient>
</defs>
</svg>
